<?xml version="1.0" standalone="yes"?>
<svg xmlns="http://www.w3.org/2000/svg" width="200" height="200">
<path style="fill:#ffffff; stroke:none;" d="M0 0L0 200L200 200L200 0L0 0z"/>
<path style="fill:#fefefe; stroke:none;" d="M29 120C31.2111 114.731 29.2885 108.583 30.2238 103.015C31.3619 96.2379 36.1001 91.2966 35 84C33.3499 85.2376 33.6666 86.6665 33 84C31.9712 86.707 32.5406 89.1648 33 92C29.5057 87.3877 31 79.5923 31 74L31 32C34.8545 34.6998 39.4322 34 44 34C54.003 34 69.6326 30.9812 78 37C74.0491 36.0267 70.0565 35.3206 66 35C66.5451 36.6352 66.3648 36.4549 68 37C66.8137 38.1863 66.4721 38.5838 66 40C67.7447 40.89 69.125 41.453 71 42C68.4166 43.2544 65.7879 44.7603 63 45.5054C60.6242 46.1404 57.6591 45.6624 55.5849 47.1752C53.5997 48.623 52.492 52.0189 51 54C50.1007 51.8764 50.1236 51.8993 48 51C48.0583 53.7845 48.3521 56.2908 49 59C40.4212 62.453 35.8634 72.3865 34 81C36.4608 79.9454 37.6567 77.3597 40 79C57.4627 38.5262 118.029 14.6089 151.985 49.0039C156.676 53.7552 160.417 58.8371 163 65C164.661 64.7924 164.54 64.5046 165 66C166.591 62.0587 165.328 57.8785 161 57C160.151 53.4292 158.811 51.3512 156 49C157.036 47.8137 157.339 47.3964 158 46L151 46C150.196 41.8041 144.652 41.6266 144.078 37.9498C143.639 35.1342 146.773 33.4503 149.054 33.2245C155.466 32.59 161.577 33.9993 168 34L168 52C166.023 50.4272 164.27 49.082 162 48L165 57C170.652 57.7798 168.987 71.194 169 76L172 73L172 77L174 77C173.772 72.6128 171.272 69.1887 170.823 65C170.507 62.0475 171.82 58.9703 171.96 56C172.197 50.9438 171.056 46.0376 171.004 41C170.977 38.3898 172.771 30.8929 170.447 29.1566C168.752 27.8904 164.982 29.8322 162.985 29.7762C155.261 29.5598 147.699 29.821 140 29.821C132.07 29.821 123.958 27.8905 116.039 28.0934C113.214 28.1657 110.759 29.6535 107.961 29.7816C92.592 30.4854 76.4895 29 61 29C53.0189 29 44.9742 29.2936 37 28.9606C34.7126 28.8651 30.7705 27.595 29.0278 29.6427C27.667 31.2417 28.0141 34.0665 28.0008 36L28 53C28 75.3903 28.0461 97.7838 29 120z"/>
<path style="fill:#ffffff; stroke:none;" d="M31 32L31 76C31 80.5767 29.3417 88.8032 33 92L32 84C33.0226 85.5339 32.8046 85.4023 34 86L34 84C35.0226 85.5339 34.8046 85.4023 36 86C37.5605 83.0255 38.5026 80.323 39 77L34 81C37.0147 72.1579 40.6425 63.866 49 59C48.4992 56.3142 48.1174 53.73 48 51C49.4566 52.1034 49.8966 52.5434 51 54C53.074 52.0406 53.9305 48.6928 56.3133 47.1752C59.8495 44.9228 66.8247 44.2839 71 43C69.3686 41.6342 67.9622 40.8582 66 40L68 38C67.5279 36.5838 67.1863 36.1863 66 35L78 37C74.1992 33.1188 69.1318 34 64 34C54.3416 34 39.5971 36.7812 31 32z"/>
<path style="fill:#ffc0d1; stroke:none;" d="M104 32C107.959 33.6611 112.737 33 117 33C113.041 31.3389 108.263 32 104 32z"/>
<path style="fill:#ffc8d0; stroke:none;" d="M98 33C99.2484 33.6848 99.5484 33.7488 101 34C99.7517 33.3152 99.4515 33.2512 98 33z"/>
<path style="fill:#dd7789; stroke:none;" d="M101 33C102.248 33.6848 102.548 33.7488 104 34C102.752 33.3152 102.452 33.2512 101 33z"/>
<path style="fill:#b42037; stroke:none;" d="M104 33C107.959 34.6611 112.737 34 117 34C113.041 32.3389 108.263 33 104 33z"/>
<path style="fill:#d1576b; stroke:none;" d="M117 33C118.248 33.6848 118.548 33.7488 120 34C118.752 33.3152 118.452 33.2512 117 33z"/>
<path style="fill:#ea92a0; stroke:none;" d="M120.667 33.3333C120.222 33.7778 121.278 33.7222 121.333 33.6667C121.778 33.2222 120.722 33.2778 120.667 33.3333z"/>
<path style="fill:#ffc7cf; stroke:none;" d="M122.667 33.3333C122.222 33.7778 123.278 33.7222 123.333 33.6667C123.778 33.2222 122.722 33.2778 122.667 33.3333z"/>
<path style="fill:#ffdae6; stroke:none;" d="M92 34C93.2484 34.6848 93.5484 34.7488 95 35C93.7517 34.3152 93.4515 34.2512 92 34z"/>
<path style="fill:#fb6e87; stroke:none;" d="M95 34C96.2484 34.6848 96.5484 34.7488 98 35C96.7517 34.3152 96.4515 34.2512 95 34z"/>
<path style="fill:#d61b37; stroke:none;" d="M82 39C87.2055 40.4478 94.6864 36.584 100 35.5139C106.716 34.1614 114.171 35 121 35C117.565 33.5588 113.702 34 110 34C100.109 34 91.3015 35.533 82 39z"/>
<path style="fill:#c81330; stroke:none;" d="M121 34C124.811 36.3284 129.598 37.3523 134 38C130.249 35.205 125.608 34.3764 121 34z"/>
<path style="fill:#ff90a6; stroke:none;" d="M125 34C126.248 34.6848 126.548 34.7488 128 35C126.752 34.3152 126.452 34.2512 125 34z"/>
<path style="fill:#ffb6be; stroke:none;" d="M91 35L92 36L91 35z"/>
<path style="fill:#d14f64; stroke:none;" d="M92.6667 35.3333C92.2222 35.7778 93.2778 35.7223 93.3333 35.6667C93.7778 35.2222 92.7222 35.2778 92.6667 35.3333z"/>
<path style="fill:#e51836; stroke:none;" d="M96 36C95.7808 38.2616 95.9956 38.0257 94 39L96 42C92.7323 42.7111 91.7151 48.0992 95.25 49.6667C99.7209 51.6492 108.114 50 113 50L112 47L117 47L114 49C117.805 50.5966 122.102 50.1523 126 49C124.778 47.0283 123.851 45.3664 122 44C124.926 42.901 127.409 41.7601 130 40L130 44L134 44C137.374 41.9469 140.291 45.4601 144 46C140.922 40.3363 135.898 38.5652 130 36.9861C119.301 34.1216 106.907 33.9751 96 36z"/>
<path style="fill:#e17784; stroke:none;" d="M129 35L130 36L129 35z"/>
<path style="fill:#ffdee2; stroke:none;" d="M130.667 35.3333C130.222 35.7778 131.278 35.7222 131.333 35.6667C131.778 35.2222 130.722 35.2777 130.667 35.3333z"/>
<path style="fill:#e45d75; stroke:none;" d="M88.6667 36.3333C88.2222 36.7778 89.2778 36.7222 89.3333 36.6667C89.7777 36.2222 88.7222 36.2778 88.6667 36.3333z"/>
<path style="fill:#f26d84; stroke:none;" d="M132 36L133 37L132 36z"/>
<path style="fill:#ffd5dd; stroke:none;" d="M133.667 36.3333C133.222 36.7778 134.278 36.7222 134.333 36.6667C134.778 36.2222 133.722 36.2778 133.667 36.3333z"/>
<path style="fill:#fca3b3; stroke:none;" d="M85 37L86 38L85 37z"/>
<path style="fill:#e41937; stroke:none;" d="M53 60C53.8945 62.0417 54.5363 63.8277 55 66C57.712 65.1123 60.1352 64.0419 63 64C58.3542 69.2189 53.9501 70.3075 56 78C58.0666 75.8757 58.2888 74.9626 58 72C61.4307 70.89 63.3227 68.3369 66 66L66 64C64.7333 62.457 64.5107 61.9522 64 60C72.9858 67.7505 77.9308 55.734 78 48C83.4466 50.3079 89.3398 50.2338 95 52L94 55C99.7525 58.9334 103.541 57.4719 110 58.2901C116.128 59.0664 119.95 61.141 126 59C126.199 56.8935 126.456 56.4567 128 55C125.477 54.0098 123.642 54.3831 121 55C118.268 50.8502 113.511 52.7843 112 57L108 56L110 52C106.156 52 100.865 52.9116 97.3333 51.142C93.5793 49.2608 92.8338 44.4418 96 42C95.2321 40.6858 95.3142 40.7679 94 40C95.7425 38.8887 96.1193 38.7295 97 37C85.2999 37.2428 77.0114 42.8817 67.5756 49.0656C62.138 52.6292 57.5838 55.1677 53 60z"/>
<path style="fill:#cf5566; stroke:none;" d="M134 37L135 38L134 37z"/>
<path style="fill:#e58b93; stroke:none;" d="M135 37L136 38L135 37z"/>
<path style="fill:#f8899b; stroke:none;" d="M83 38L84 39L83 38z"/>
<path style="fill:#f97f91; stroke:none;" d="M137 38L138 39L137 38z"/>
<path style="fill:#ffb0bd; stroke:none;" d="M80 39L81 40L80 39z"/>
<path style="fill:#e66b7f; stroke:none;" d="M81 39L82 40L81 39z"/>
<path style="fill:#d01535; stroke:none;" d="M138 39C140.936 43.8395 147.893 48.5747 153 51C149.693 45.4484 143.756 41.7228 138 39z"/>
<path style="fill:#e78390; stroke:none;" d="M139 39L140 40L139 39z"/>
<path style="fill:#ffa1b1; stroke:none;" d="M78 40L79 41L78 40z"/>
<path style="fill:#d65369; stroke:none;" d="M79 40L80 41L79 40z"/>
<path style="fill:#e51837; stroke:none;" d="M128 40C126.012 42.061 124.843 42.5787 122 43L126 49C121.983 49.9565 118.113 49.9996 114 50C115.186 48.8137 115.584 48.4721 117 48C115.231 47.2211 113.964 47.0876 112 47C112 48.7968 112.014 48.5215 113 50L96 50L96 52L110 52C109.043 53.5167 108.613 54.3385 108 56L112 57C114.267 53.1987 117.594 51.8324 121 55L128 54C126.368 55.9256 126.034 56.5107 126 59C122.51 59.7516 123.126 61.7649 126.028 63.3611C129.671 65.3655 132.815 66.9121 137 67C137.976 70.5096 139.705 72.8115 142.413 75.2894C144.214 76.9381 147.055 78.529 146 81C148.716 86.7102 151.699 92.6962 152.741 99C154.848 111.745 148.178 125.926 142.247 136.946C139.526 142.002 134.542 144.076 133 150C139.089 147.641 143.34 143.359 145 137C149.146 137.066 150.024 134.495 152.451 131.424C157.379 125.187 158.412 116.564 164 111C163.268 103.923 166.081 96.9921 166.826 90C167.718 81.6378 164.562 73.7685 161.948 66C160.016 60.2589 159.069 55.768 154.049 51.7492C149.774 48.3263 146.292 46.842 141.325 45.0108C138.387 43.9278 136.564 41.0964 134 44C132.057 43.5983 131.943 43.5983 130 44L130 40L128 40z"/>
<path style="fill:#fb8396; stroke:none;" d="M141 40L142 41L141 40z"/>
<path style="fill:#ffa6af; stroke:none;" d="M76 41L77 42L76 41z"/>
<path style="fill:#ca0e2e; stroke:none;" d="M76 42C77.6593 42.4065 78.2418 42.3086 80 42C78.1908 41.4257 77.9312 41.5347 76 42z"/>
<path style="fill:#e0566c; stroke:none;" d="M142 41L143 42L142 41z"/>
<path style="fill:#ffa7b2; stroke:none;" d="M143 41L144 42L143 41z"/>
<path style="fill:#ffb4c0; stroke:none;" d="M74 42L75 43L74 42z"/>
<path style="fill:#ec6278; stroke:none;" d="M75 42L76 43L75 42z"/>
<path style="fill:#f07a8d; stroke:none;" d="M144 42L145 43L144 42z"/>
<path style="fill:#e47b85; stroke:none;" d="M73 43L74 44L73 43z"/>
<path style="fill:#cf1235; stroke:none;" d="M68 47C71.1469 47.4611 73.373 45.7082 76 44C72.8531 43.5389 70.627 45.2918 68 47z"/>
<path style="fill:#d14f66; stroke:none;" d="M145 43L146 44L145 43z"/>
<path style="fill:#ffbfc7; stroke:none;" d="M146 43L147 44L146 43z"/>
<path style="fill:#ff97a6; stroke:none;" d="M71 44L72 45L71 44z"/>
<path style="fill:#f8919f; stroke:none;" d="M147 44L148 45L147 44z"/>
<path style="fill:#ffacb5; stroke:none;" d="M69 45L70 46L69 45z"/>
<path style="fill:#dd5d6f; stroke:none;" d="M70 45L71 46L70 45z"/>
<path style="fill:#e0848e; stroke:none;" d="M148 45L149 46L148 45z"/>
<path style="fill:#fb8197; stroke:none;" d="M68 46L69 47L68 46z"/>
<path style="fill:#d86376; stroke:none;" d="M149 46L150 47L149 46z"/>
<path style="fill:#ffc2ca; stroke:none;" d="M66 47L67 48L66 47z"/>
<path style="fill:#d96075; stroke:none;" d="M67 47L68 48L67 47z"/>
<path style="fill:#da6376; stroke:none;" d="M150 47L151 48L150 47z"/>
<path style="fill:#ff808b; stroke:none;" d="M65 48L66 49L65 48z"/>
<path style="fill:#d21930; stroke:none;" d="M64 51C66.2974 50.3264 66.7741 50.0347 68 48C65.8683 48.7765 65.2292 49.1302 64 51z"/>
<path style="fill:#e51836; stroke:none;" d="M78 48C77.8459 54.554 72.9749 67.2064 65 60C64.2489 62.0464 64.3444 62.5957 66 64L66 66L58 72C57.8318 74.6224 57.3841 75.7454 56 78C55.6993 76.1894 54.8218 73.7715 55.5378 71.9761C56.8239 68.7511 61.1701 67.0681 63 64C59.8825 63.8552 57.8401 64.6898 55 66C54.8241 64.1219 54.5618 62.8006 54 61L52 61C49.0029 66.421 44.3523 70.7753 41.4522 76.0895C32.0674 93.2862 31.5269 112.431 36.4205 130.999C38.4744 138.792 44.2927 153.573 54 153C52.0268 149.917 50.1941 147.803 47 146C47.5157 137.459 40.4104 129.976 41.1088 121C42.9367 97.5058 58.775 77.5202 79 66.6404C85.1018 63.3581 92.0039 59.4641 99 59C97.3942 57.0864 96.2167 56.1631 94 55C94.9857 53.5215 95 53.7968 95 52C89.5534 49.6921 83.6602 49.7662 78 48z"/>
<path style="fill:#db6471; stroke:none;" d="M152 49L153 50L152 49z"/>
<path style="fill:#d7536b; stroke:none;" d="M63 50L64 51L63 50z"/>
<path style="fill:#d9596c; stroke:none;" d="M153 50L154 51L153 50z"/>
<path style="fill:#ffaab4; stroke:none;" d="M61 51L62 52L61 51z"/>
<path style="fill:#d86d7d; stroke:none;" d="M154 51L155 52L154 51z"/>
<path style="fill:#ff849a; stroke:none;" d="M60 52L61 53L60 52z"/>
<path style="fill:#eb7083; stroke:none;" d="M155 52L156 53L155 52z"/>
<path style="fill:#ea7c8e; stroke:none;" d="M59 53L60 54L59 53z"/>
<path style="fill:#faacb6; stroke:none;" d="M156 53L157 54L156 53z"/>
<path style="fill:#ef6684; stroke:none;" d="M58 54L59 55L58 54z"/>
<path style="fill:#dc677e; stroke:none;" d="M57 55L58 56L57 55z"/>
<path style="fill:#e17481; stroke:none;" d="M158 56L159 57L158 56z"/>
<path style="fill:#d56170; stroke:none;" d="M55 57L56 58L55 57z"/>
<path style="fill:#ffb0bb; stroke:none;" d="M159 57L160 58L159 57z"/>
<path style="fill:#e05a6d; stroke:none;" d="M54 58L55 59L54 58z"/>
<path style="fill:#c80f29; stroke:none;" d="M102 58C105.163 59.3274 108.586 58.9996 112 59C108.837 57.6726 105.414 58.0004 102 58z"/>
<path style="fill:#d66570; stroke:none;" d="M53 59L54 60L53 59z"/>
<path style="fill:#c51631; stroke:none;" d="M92 60C94.6163 60.6293 97.2832 60.1101 100 60C97.1481 58.8121 94.9396 59.1356 92 60z"/>
<path style="fill:#ed5b6b; stroke:none;" d="M100 59C101.506 59.683 102.315 59.8259 104 60C102.494 59.317 101.685 59.1741 100 59z"/>
<path style="fill:#f6717f; stroke:none;" d="M104 59C106.613 60.0977 109.165 59.9928 112 60C109.387 58.9023 106.835 59.0072 104 59z"/>
<path style="fill:#ac0f29; stroke:none;" d="M112 59C113.769 59.7789 115.036 59.9124 117 60C115.231 59.2211 113.964 59.0876 112 59z"/>
<path style="fill:#ffa2b0; stroke:none;" d="M160 59L161 60L160 59z"/>
<path style="fill:#ea6178; stroke:none;" d="M52 60L53 61L52 60z"/>
<path style="fill:#cc6573; stroke:none;" d="M94.6667 60.3333C94.2222 60.7778 95.2778 60.7222 95.3333 60.6667C95.7777 60.2223 94.7222 60.2777 94.6667 60.3333z"/>
<path style="fill:#f6b1b8; stroke:none;" d="M96.6667 60.3333C96.2222 60.7778 97.2778 60.7222 97.3333 60.6667C97.7778 60.2222 96.7222 60.2778 96.6667 60.3333z"/>
<path style="fill:#fffeff; stroke:none;" d="M68 162C62.7748 154.575 56.7352 149.122 54.2894 140C49.484 122.078 64.1962 101.547 79 93C76.5683 91.6829 74.7519 91.7231 72 92C70.1973 88.5471 67.5167 86.6227 64 85C64.4176 87.6895 64.7173 88.5537 67 90C66.254 93.1414 65.8902 94.9684 67 98L61 98C59.549 101.48 58.3512 104.255 59 108L54 108C56.306 102.847 57.353 99.6858 56 94C58.561 92.9364 60.6848 91.5208 63 90C62.3001 86.7839 62.4266 84.2319 63 81C65.8991 82.0203 67.3084 82.2276 68 79L73 82C77.4354 77.4714 84.17 79.6649 90 80C87.421 77.0486 82.7059 78 79 78L80 74L75 74C77.0287 69.8335 81.8073 70.7885 86 70L85 68C89.5799 66.5219 90.8795 64.5549 96 66C98.3211 63.7581 101.139 62.6698 103 60C78.2124 61.0807 53.7454 80.4307 46.4421 104C39.8978 125.12 44.7914 153.488 68 162z"/>
<path style="fill:#ffffff; stroke:none;" d="M96 66C90.8023 63.8397 89.5244 65.6374 85 68L86 70C81.8839 70.4747 76.2912 69.4544 75 74L80 74L79 78C82.9899 78.0004 86.7341 77.5258 90 80C84.7865 79.3359 76.2649 76.9639 73 82C71.2854 80.4495 70.1773 79.7561 68 79C66.4675 81.2696 65.7393 81.2799 63 81C62.219 84.3127 62.0582 86.7236 63 90L56 94C57.0686 99.7797 55.5209 102.647 54 108L59 108C58.8928 104.43 59.9814 101.407 61 98C63.1209 98.2465 64.8742 98.2305 67 98C66.1569 95.108 66.5667 92.9532 67 90C65.1602 88.2827 64.6514 87.4344 64 85C67.0685 87.0472 69.7312 89.0879 72 92C83.791 91.391 93.9712 84.9811 106 86.1042C131.397 88.4753 141.761 116.016 131.88 137C127.509 146.284 118.887 151.466 114 160C144.298 146.928 163.631 104.621 142.239 76.0008C135.304 66.7216 123.49 61.0117 112 60.0934C106.244 59.6333 99.4438 61.0098 96 66z"/>
<path style="fill:#e794a0; stroke:none;" d="M115.667 60.3333C115.222 60.7778 116.278 60.7222 116.333 60.6667C116.778 60.2223 115.722 60.2777 115.667 60.3333z"/>
<path style="fill:#c2455a; stroke:none;" d="M117.667 60.3333C117.222 60.7778 118.278 60.7222 118.333 60.6667C118.778 60.2223 117.722 60.2777 117.667 60.3333z"/>
<path style="fill:#eb7e8d; stroke:none;" d="M51 61L52 62L51 61z"/>
<path style="fill:#f3607f; stroke:none;" d="M90.6667 61.3333C90.2222 61.7778 91.2778 61.7222 91.3333 61.6667C91.7778 61.2222 90.7222 61.2777 90.6667 61.3333z"/>
<path style="fill:#ffb1c0; stroke:none;" d="M92.6667 61.3333C92.2222 61.7778 93.2778 61.7222 93.3333 61.6667C93.7777 61.2222 92.7222 61.2778 92.6667 61.3333z"/>
<path style="fill:#ffb5c8; stroke:none;" d="M118 61C119.248 61.6848 119.548 61.7488 121 62C119.752 61.3152 119.452 61.2512 118 61z"/>
<path style="fill:#d43455; stroke:none;" d="M121.667 61.3333C121.222 61.7778 122.278 61.7222 122.333 61.6667C122.778 61.2223 121.722 61.2777 121.667 61.3333z"/>
<path style="fill:#f8869a; stroke:none;" d="M161 61L162 62L161 61z"/>
<path style="fill:#fb8b9e; stroke:none;" d="M50 62L51 63L50 62z"/>
<path style="fill:#c73f52; stroke:none;" d="M86.6667 62.3333C86.2222 62.7778 87.2778 62.7222 87.3333 62.6667C87.7778 62.2222 86.7222 62.2778 86.6667 62.3333z"/>
<path style="fill:#fca5af; stroke:none;" d="M88.6667 62.3333C88.2222 62.7778 89.2778 62.7222 89.3333 62.6667C89.7778 62.2222 88.7222 62.2778 88.6667 62.3333z"/>
<path style="fill:#f299a1; stroke:none;" d="M123 62L124 63L123 62z"/>
<path style="fill:#d01339; stroke:none;" d="M161 62C161.429 66.1931 163.268 69.8784 164 74C165.645 69.7741 163.73 65.3832 161 62z"/>
<path style="fill:#ffb4b6; stroke:none;" d="M49 63L50 64L49 63z"/>
<path style="fill:#c41c2b; stroke:none;" d="M50 63C49.0427 64.5167 48.6128 65.3385 48 67C49.63 65.4852 50.1631 65.1448 50 63z"/>
<path style="fill:#e05c6d; stroke:none;" d="M85 63L86 64L85 63z"/>
<path style="fill:#ffd9df; stroke:none;" d="M86.6667 63.3333C86.2222 63.7778 87.2778 63.7222 87.3333 63.6667C87.7778 63.2222 86.7222 63.2778 86.6667 63.3333z"/>
<path style="fill:#ffbbc6; stroke:none;" d="M125 63L126 64L125 63z"/>
<path style="fill:#e67085; stroke:none;" d="M126 63L127 64L126 63z"/>
<path style="fill:#f08f9d; stroke:none;" d="M162 63L163 64L162 63z"/>
<path style="fill:#ffbcb8; stroke:none;" d="M48 64L49 65L48 64z"/>
<path style="fill:#f78a9e; stroke:none;" d="M83 64L84 65L83 64z"/>
<path style="fill:#e78599; stroke:none;" d="M128 64L129 65L128 64z"/>
<path style="fill:#da526f; stroke:none;" d="M80 65L81 66L80 65z"/>
<path style="fill:#ff96b0; stroke:none;" d="M81 65L82 66L81 65z"/>
<path style="fill:#f4728c; stroke:none;" d="M130 65L131 66L130 65z"/>
<path style="fill:#ff90a6; stroke:none;" d="M163 65L164 66L163 65z"/>
<path style="fill:#f18293; stroke:none;" d="M47 66L48 67L47 66z"/>
<path style="fill:#f8a1a5; stroke:none;" d="M79 66L80 67L79 66z"/>
<path style="fill:#fbadb4; stroke:none;" d="M131 66L132 67L131 66z"/>
<path style="fill:#ff9aad; stroke:none;" d="M46 67L47 68L46 67z"/>
<path style="fill:#cb1b3d; stroke:none;" d="M47 67C45.7386 69.0098 44.8102 70.7778 44 73C46.1529 71.1145 47.4096 69.8883 47 67z"/>
<path style="fill:#ff899c; stroke:none;" d="M77 67L78 68L77 67z"/>
<path style="fill:#e8748b; stroke:none;" d="M133 67L134 68L133 67z"/>
<path style="fill:#c31435; stroke:none;" d="M134 67C135.223 68.1951 135.42 68.3164 137 69C136.02 67.2167 136.092 67.4057 134 67z"/>
<path style="fill:#e77b86; stroke:none;" d="M75 68L76 69L75 68z"/>
<path style="fill:#ffbbcc; stroke:none;" d="M134 68L135 69L134 68z"/>
<path style="fill:#e98797; stroke:none;" d="M164 68L165 69L164 68z"/>
<path style="fill:#ce5f6f; stroke:none;" d="M45 69L46 70L45 69z"/>
<path style="fill:#e5606d; stroke:none;" d="M73 69L74 70L73 69z"/>
<path style="fill:#ffbbc0; stroke:none;" d="M74 69L75 70L74 69z"/>
<path style="fill:#e05d74; stroke:none;" d="M136 69L137 70L136 69z"/>
<path style="fill:#fb8d9c; stroke:none;" d="M44 70L45 71L44 70z"/>
<path style="fill:#fc959a; stroke:none;" d="M72 70L73 71L72 70z"/>
<path style="fill:#de6e7e; stroke:none;" d="M137 70L138 71L137 70z"/>
<path style="fill:#ff88a1; stroke:none;" d="M165.333 70.6667C165.278 70.7222 165.222 71.7778 165.667 71.3333C165.722 71.2778 165.778 70.2223 165.333 70.6667z"/>
<path style="fill:#ffafb7; stroke:none;" d="M71 71L72 72L71 71z"/>
<path style="fill:#f87289; stroke:none;" d="M138 71L139 72L138 71z"/>
<path style="fill:#d56372; stroke:none;" d="M43 72L44 73L43 72z"/>
<path style="fill:#f78494; stroke:none;" d="M69 72L70 73L69 72z"/>
<path style="fill:#f68998; stroke:none;" d="M139 72L140 73L139 72z"/>
<path style="fill:#da3f5e; stroke:none;" d="M165.333 72.6667C165.278 72.7223 165.222 73.7778 165.667 73.3333C165.722 73.2778 165.778 72.2222 165.333 72.6667z"/>
<path style="fill:#ffcbd0; stroke:none;" d="M166 72L166 75C166.696 73.4463 166.696 73.5537 166 72z"/>
<path style="fill:#ff99a7; stroke:none;" d="M42 73L43 74L42 73z"/>
<path style="fill:#ff9aaa; stroke:none;" d="M68 73L69 74L68 73z"/>
<path style="fill:#fa778a; stroke:none;" d="M140 73L141 74L140 73z"/>
<path style="fill:#ffb6be; stroke:none;" d="M67 74L68 75L67 74z"/>
<path style="fill:#dc6874; stroke:none;" d="M141 74L142 75L141 74z"/>
<path style="fill:#c22238; stroke:none;" d="M165 74L166 81C166.965 78.2945 166.466 76.45 165 74z"/>
<path style="fill:#e68691; stroke:none;" d="M41 75L42 76L41 75z"/>
<path style="fill:#e1576d; stroke:none;" d="M65 75L66 76L65 75z"/>
<path style="fill:#dc7280; stroke:none;" d="M166.333 75.6667C166.278 75.7222 166.222 76.7778 166.667 76.3333C166.722 76.2778 166.778 75.2222 166.333 75.6667z"/>
<path style="fill:#df7285; stroke:none;" d="M64 76L65 77L64 76z"/>
<path style="fill:#ffc4cd; stroke:none;" d="M142 76L143 77L142 76z"/>
<path style="fill:#c81834; stroke:none;" d="M143 76C144.48 78.4123 145.524 79.6609 148 81C146.591 78.4358 145.597 77.3297 143 76z"/>
<path style="fill:#ffdce3; stroke:none;" d="M167 76L167 80C167.71 78.2405 167.71 77.7595 167 76z"/>
<path style="fill:#ee6e82; stroke:none;" d="M40 77L41 78L40 77z"/>
<path style="fill:#ee7687; stroke:none;" d="M63 77L64 78L63 77z"/>
<path style="fill:#f9abb8; stroke:none;" d="M143 77L144 78L143 77z"/>
<path style="fill:#e17c83; stroke:none;" d="M62 78L63 79L62 78z"/>
<path style="fill:#f66375; stroke:none;" d="M144 78L145 79L144 78z"/>
<path style="fill:#f68595; stroke:none;" d="M39 79L40 80L39 79z"/>
<path style="fill:#e67887; stroke:none;" d="M61 79L62 80L61 79z"/>
<path style="fill:#ffc0ce; stroke:none;" d="M144 79L145 80L144 79z"/>
<path style="fill:#ffb9c4; stroke:none;" d="M38 80L39 81L38 80z"/>
<path style="fill:#c31b37; stroke:none;" d="M39 80C38.1324 82.3547 37.4264 84.5309 37 87C38.8361 84.6918 39.7974 82.8889 39 80z"/>
<path style="fill:#ee909d; stroke:none;" d="M60 80L61 81L60 80z"/>
<path style="fill:#f9a2ad; stroke:none;" d="M145 80L146 81L145 80z"/>
<path style="fill:#ff8f9e; stroke:none;" d="M167.333 80.6667C167.278 80.7223 167.222 81.7778 167.667 81.3333C167.722 81.2778 167.778 80.2222 167.333 80.6667z"/>
<path style="fill:#ff7c8d; stroke:none;" d="M38 81L39 82L38 81z"/>
<path style="fill:#e86e81; stroke:none;" d="M59 81L60 82L59 81z"/>
<path style="fill:#d96473; stroke:none;" d="M58 82L59 83L58 82z"/>
<path style="fill:#ffa2b5; stroke:none;" d="M146 82L147 83L146 82z"/>
<path style="fill:#e56576; stroke:none;" d="M167.333 82.6667C167.278 82.7223 167.222 83.7778 167.667 83.3333C167.722 83.2778 167.778 82.2222 167.333 82.6667z"/>
<path style="fill:#f193a2; stroke:none;" d="M37 83L38 84L37 83z"/>
<path style="fill:#dd5c72; stroke:none;" d="M147 83L148 84L147 83z"/>
<path style="fill:#ffc0cb; stroke:none;" d="M57 84L58 85L57 84z"/>
<path style="fill:#ffb9c3; stroke:none;" d="M147 84L148 85L147 84z"/>
<path style="fill:#d5445b; stroke:none;" d="M167 84L167 91C168.059 88.4657 168.059 86.5343 167 84z"/>
<path style="fill:#ffaec3; stroke:none;" d="M36 85L37 86L36 85z"/>
<path style="fill:#ffa9b4; stroke:none;" d="M56 85L57 86L56 85z"/>
<path style="fill:#e1607b; stroke:none;" d="M36 86L37 87L36 86z"/>
<path style="fill:#c5263e; stroke:none;" d="M53 86L52 90C53.4336 88.6075 54.0449 87.7672 55 86L53 86z"/>
<path style="fill:#eb7787; stroke:none;" d="M55 86L56 87L55 86z"/>
<path style="fill:#ffbcca; stroke:none;" d="M94.6667 86.3333C94.2222 86.7778 95.2778 86.7222 95.3333 86.6667C95.7778 86.2222 94.7222 86.2778 94.6667 86.3333z"/>
<path style="fill:#ff92a0; stroke:none;" d="M96.6667 86.3333C96.2222 86.7778 97.2778 86.7222 97.3333 86.6667C97.7778 86.2222 96.7222 86.2778 96.6667 86.3333z"/>
<path style="fill:#f4647b; stroke:none;" d="M98 86C100.332 86.9845 102.457 86.9813 105 87C102.668 86.0155 100.543 86.0187 98 86z"/>
<path style="fill:#ff8e9f; stroke:none;" d="M105 86C106.248 86.6848 106.548 86.7488 108 87C106.752 86.3152 106.452 86.2512 105 86z"/>
<path style="fill:#ffd5d8; stroke:none;" d="M108.667 86.3333C108.222 86.7778 109.278 86.7222 109.333 86.6667C109.778 86.2222 108.722 86.2778 108.667 86.3333z"/>
<path style="fill:#ffc4d0; stroke:none;" d="M148.333 86.6667C148.278 86.7222 148.222 87.7778 148.667 87.3333C148.722 87.2778 148.778 86.2222 148.333 86.6667z"/>
<path style="fill:#d15566; stroke:none;" d="M54 87L55 88L54 87z"/>
<path style="fill:#de838d; stroke:none;" d="M91.6667 87.3333C91.2222 87.7777 92.2778 87.7222 92.3333 87.6667C92.7778 87.2222 91.7222 87.2778 91.6667 87.3333z"/>
<path style="fill:#bc475a; stroke:none;" d="M93.6667 87.3333C93.2222 87.7778 94.2778 87.7222 94.3333 87.6667C94.7778 87.2222 93.7222 87.2778 93.6667 87.3333z"/>
<path style="fill:#c8122c; stroke:none;" d="M90 88C95.389 90.198 104.053 88 110 88C103.952 85.4623 96.3346 87.5001 90 88z"/>
<path style="fill:#e0868b; stroke:none;" d="M110.667 87.3333C110.222 87.7777 111.278 87.7222 111.333 87.6667C111.778 87.2222 110.722 87.2778 110.667 87.3333z"/>
<path style="fill:#d9707a; stroke:none;" d="M35.3333 88.6667C35.2778 88.7222 35.2222 89.7778 35.6667 89.3333C35.7222 89.2778 35.7778 88.2222 35.3333 88.6667z"/>
<path style="fill:#fb8599; stroke:none;" d="M88 88L89 89L88 88z"/>
<path style="fill:#e04e68; stroke:none;" d="M89 88L90 89L89 88z"/>
<path style="fill:#e51837; stroke:none;" d="M71 101C73.6313 101.24 75.4433 100.754 78 100L76 104L78 104C75.1196 106.979 75.2283 109.346 74 113C81.6698 115.596 86.4305 112.993 94 112.174C98.7365 111.661 103.302 112.919 108 112.711C112.946 112.491 117.159 110.327 122 110C120.602 112.05 119.749 113.646 119 116C121.936 117.895 121.351 120.916 123.741 123.137C130.238 129.177 130.735 113.302 132 110L128 110L128 105L131 109C132.047 102.564 127.286 95.5123 121 94C120.281 88.5435 111.515 88.0087 107 88C97.7695 87.9822 90.4385 88.9537 82 92.3981C77.0744 94.4087 73.0906 95.7561 71 101z"/>
<path style="fill:#f8627e; stroke:none;" d="M114 88L115 89L114 88z"/>
<path style="fill:#ffa4b8; stroke:none;" d="M115 88L116 89L115 88z"/>
<path style="fill:#fb9ca9; stroke:none;" d="M149.333 88.6667C149.278 88.7223 149.222 89.7777 149.667 89.3333C149.722 89.2778 149.778 88.2222 149.333 88.6667z"/>
<path style="fill:#fe909f; stroke:none;" d="M53 89L54 90L53 89z"/>
<path style="fill:#f3a2ad; stroke:none;" d="M85 89L86 90L85 89z"/>
<path style="fill:#d46474; stroke:none;" d="M86 89L87 90L86 89z"/>
<path style="fill:#df5b71; stroke:none;" d="M116 89L117 90L116 89z"/>
<path style="fill:#f89aa4; stroke:none;" d="M117 89L118 90L117 89z"/>
<path style="fill:#b91d3c; stroke:none;" d="M51.3333 90.6667C51.2778 90.7222 51.2222 91.7778 51.6667 91.3333C51.7222 91.2778 51.7778 90.2222 51.3333 90.6667z"/>
<path style="fill:#e56c7f; stroke:none;" d="M52 90L53 91L52 90z"/>
<path style="fill:#f0889a; stroke:none;" d="M83 90L84 91L83 90z"/>
<path style="fill:#ba2340; stroke:none;" d="M80 92C82.4621 92.6968 83.6654 92.1104 86 91C83.7264 90.5913 82.2191 91.2117 80 92z"/>
<path style="fill:#eb566f; stroke:none;" d="M118 90L119 91L118 90z"/>
<path style="fill:#ff8ca0; stroke:none;" d="M119 90L120 91L119 90z"/>
<path style="fill:#e95a75; stroke:none;" d="M150.333 90.6667C150.278 90.7223 150.222 91.7777 150.667 91.3333C150.722 91.2778 150.778 90.2222 150.333 90.6667z"/>
<path style="fill:#ffa1b1; stroke:none;" d="M34 91L35 92L34 91z"/>
<path style="fill:#f68f9e; stroke:none;" d="M81 91L82 92L81 91z"/>
<path style="fill:#d85c6f; stroke:none;" d="M120 91L121 92L120 91z"/>
<path style="fill:#e46576; stroke:none;" d="M167 91L167 94C167.696 92.4463 167.696 92.5537 167 91z"/>
<path style="fill:#d7405b; stroke:none;" d="M34.3333 92.6667C34.2778 92.7222 34.2222 93.7778 34.6667 93.3333C34.7222 93.2778 34.7778 92.2222 34.3333 92.6667z"/>
<path style="fill:#f87e94; stroke:none;" d="M51 92L52 93L51 92z"/>
<path style="fill:#f38f9e; stroke:none;" d="M79 92L80 93L79 92z"/>
<path style="fill:#f88b9a; stroke:none;" d="M122 92L123 93L122 92z"/>
<path style="fill:#ffa4b3; stroke:none;" d="M150.333 92.6667C150.278 92.7223 150.222 93.7778 150.667 93.3333C150.722 93.2778 150.778 92.2222 150.333 92.6667z"/>
<path style="fill:#d01a37; stroke:none;" d="M166 92L163 110C166.157 105.569 168.136 97.1395 166 92z"/>
<path style="fill:#c0283b; stroke:none;" d="M49 93L48 97C49.4336 95.6074 50.0449 94.7672 51 93L49 93z"/>
<path style="fill:#ffa3ae; stroke:none;" d="M77 93L78 94L77 93z"/>
<path style="fill:#b51933; stroke:none;" d="M121.667 93.3333C121.222 93.7777 122.278 93.7222 122.333 93.6667C122.778 93.2222 121.722 93.2778 121.667 93.3333z"/>
<path style="fill:#df7181; stroke:none;" d="M123 93L124 94L123 93z"/>
<path style="fill:#f9a2b0; stroke:none;" d="M33.3333 94.6667C33.2778 94.7222 33.2222 95.7778 33.6667 95.3333C33.7222 95.2778 33.7778 94.2222 33.3333 94.6667z"/>
<path style="fill:#c21831; stroke:none;" d="M34 94L33 102C34.62 99.295 35.1568 96.9665 34 94z"/>
<path style="fill:#f59ea5; stroke:none;" d="M50 94L51 95L50 94z"/>
<path style="fill:#e77787; stroke:none;" d="M76 94L77 95L76 94z"/>
<path style="fill:#d4566c; stroke:none;" d="M124 94L125 95L124 94z"/>
<path style="fill:#ffbdc9; stroke:none;" d="M125 94L126 95L125 94z"/>
<path style="fill:#ffdce4; stroke:none;" d="M150.333 94.6667C150.278 94.7223 150.222 95.7777 150.667 95.3333C150.722 95.2778 150.778 94.2222 150.333 94.6667z"/>
<path style="fill:#ff9cab; stroke:none;" d="M167.333 94.6667C167.278 94.7223 167.222 95.7777 167.667 95.3333C167.722 95.2778 167.778 94.2222 167.333 94.6667z"/>
<path style="fill:#ffb9c1; stroke:none;" d="M74 95L75 96L74 95z"/>
<path style="fill:#cd5968; stroke:none;" d="M75 95L76 96L75 95z"/>
<path style="fill:#d9576a; stroke:none;" d="M125 95L126 96L125 95z"/>
<path style="fill:#ffc0c9; stroke:none;" d="M126 95L127 96L126 95z"/>
<path style="fill:#ce6274; stroke:none;" d="M151 95L151 98C151.696 96.4463 151.696 96.5537 151 95z"/>
<path style="fill:#d55361; stroke:none;" d="M33.3333 96.6667C33.2778 96.7222 33.2222 97.7778 33.6667 97.3333C33.7222 97.2778 33.7778 96.2222 33.3333 96.6667z"/>
<path style="fill:#ffd6e1; stroke:none;" d="M49.3333 96.6667C49.2778 96.7222 49.2222 97.7778 49.6667 97.3333C49.7222 97.2778 49.7778 96.2222 49.3333 96.6667z"/>
<path style="fill:#ec7787; stroke:none;" d="M73 96L74 97L73 96z"/>
<path style="fill:#ffb0be; stroke:none;" d="M127 96L128 97L127 96z"/>
<path style="fill:#ba112d; stroke:none;" d="M152 96C152 102.771 151.849 109.284 151 116C154.167 111.364 154.151 101.127 152 96z"/>
<path style="fill:#ffcbd8; stroke:none;" d="M167.333 96.6667C167.278 96.7223 167.222 97.7778 167.667 97.3333C167.722 97.2778 167.778 96.2222 167.333 96.6667z"/>
<path style="fill:#da5972; stroke:none;" d="M48 97L49 98L48 97z"/>
<path style="fill:#ffafba; stroke:none;" d="M32 98L32 101C32.6961 99.4463 32.6961 99.5537 32 98z"/>
<path style="fill:#ffaebc; stroke:none;" d="M48 98L49 99L48 98z"/>
<path style="fill:#de5b70; stroke:none;" d="M71 98L72 99L71 98z"/>
<path style="fill:#e16e81; stroke:none;" d="M128 98L129 99L128 98z"/>
<path style="fill:#ffc7ce; stroke:none;" d="M151 98L151 107C152.256 104.006 152.256 100.994 151 98z"/>
<path style="fill:#bd1c33; stroke:none;" d="M46 99L46 102C47.0154 100.861 47.3087 100.388 48 99L46 99z"/>
<path style="fill:#cb163c; stroke:none;" d="M67 104C69.1357 102.451 70.4511 101.136 72 99C69.3134 100.324 68.3241 101.313 67 104z"/>
<path style="fill:#c11a36; stroke:none;" d="M128 99C128.81 101.222 129.739 102.99 131 105C131.41 102.112 130.153 100.885 128 99z"/>
<path style="fill:#f28399; stroke:none;" d="M129 99L130 100L129 99z"/>
<path style="fill:#e37c8a; stroke:none;" d="M166.333 99.6667C166.278 99.7222 166.222 100.778 166.667 100.333C166.722 100.278 166.778 99.2222 166.333 99.6667z"/>
<path style="fill:#f88a98; stroke:none;" d="M47 100L48 101L47 100z"/>
<path style="fill:#ffb9c9; stroke:none;" d="M68 100L69 101L68 100z"/>
<path style="fill:#e81836; stroke:none;" d="M70 159C67.5713 154.365 64.4077 149.371 64.1435 144C63.6461 133.889 73.8718 122.185 81 116C78.8206 114.274 76.698 113.727 74 113C75.5339 111.977 75.4023 112.195 76 111C75.2489 108.016 76.2944 106.485 78 104L76 104C77.2965 102.406 77.5354 101.982 78 100C73.6519 100.721 68.8782 101.549 65.5679 104.73C52.3778 117.405 49.5808 152.227 70 159z"/>
<path style="fill:#faaab1; stroke:none;" d="M130 100L131 101L130 100z"/>
<path style="fill:#d54c63; stroke:none;" d="M32.3333 101.667C32.2778 101.722 32.2222 102.778 32.6667 102.333C32.7222 102.278 32.7778 101.222 32.3333 101.667z"/>
<path style="fill:#ffc1cb; stroke:none;" d="M166.333 101.667C166.278 101.722 166.222 102.778 166.667 102.333C166.722 102.278 166.778 101.222 166.333 101.667z"/>
<path style="fill:#e07080; stroke:none;" d="M46 102L47 103L46 102z"/>
<path style="fill:#ff8a9b; stroke:none;" d="M131 102L132 103L131 102z"/>
<path style="fill:#b50c28; stroke:none;" d="M32 103L32 116C33.5909 112.209 33.5909 106.791 32 103z"/>
<path style="fill:#fba3ae; stroke:none;" d="M46 103L47 104L46 103z"/>
<path style="fill:#d9516b; stroke:none;" d="M66 103L67 104L66 103z"/>
<path style="fill:#ffdce8; stroke:none;" d="M31 104L31 107C31.6961 105.446 31.6961 105.554 31 104z"/>
<path style="fill:#df828b; stroke:none;" d="M132 104L133 105L132 104z"/>
<path style="fill:#fd8699; stroke:none;" d="M165.333 104.667C165.278 104.722 165.222 105.778 165.667 105.333C165.722 105.278 165.778 104.222 165.333 104.667z"/>
<path style="fill:#eb6a7f; stroke:none;" d="M45 105L46 106L45 105z"/>
<path style="fill:#e36b7c; stroke:none;" d="M64 105L65 106L64 105z"/>
<path style="fill:#e41937; stroke:none;" d="M128 105L128 110L132 110C130.175 113.232 130.762 128.151 124.25 123.361C121.005 120.974 123.316 116.925 119 116L122 110C115.96 110.182 110.15 112.518 104 113C109.039 116.106 112.559 117.816 116 123C119.841 123.894 120.677 128.359 120.94 132C121.657 141.947 112.538 148.93 113 158C132.05 149.934 136.981 125.862 133 108C131.203 108 131.479 108.014 130 109C129.489 107.048 129.267 106.543 128 105z"/>
<path style="fill:#c82c46; stroke:none;" d="M132 105L133 112C134.078 109.227 133.663 107.435 132 105z"/>
<path style="fill:#ffcdd7; stroke:none;" d="M45.3333 106.667C45.2778 106.722 45.2222 107.778 45.6667 107.333C45.7223 107.278 45.7778 106.222 45.3333 106.667z"/>
<path style="fill:#ffa8b4; stroke:none;" d="M63 106L64 107L63 106z"/>
<path style="fill:#ff98a6; stroke:none;" d="M133 106L134 107L133 106z"/>
<path style="fill:#ffdde2; stroke:none;" d="M165.333 106.667C165.278 106.722 165.222 107.778 165.667 107.333C165.722 107.278 165.778 106.222 165.333 106.667z"/>
<path style="fill:#f3aebb; stroke:none;" d="M31 107L31 116C32.2561 113.006 32.2561 109.994 31 107z"/>
<path style="fill:#fba0ae; stroke:none;" d="M151 107L151 110C151.696 108.446 151.696 108.554 151 107z"/>
<path style="fill:#b5041d; stroke:none;" d="M43 108L43 111C43.6961 109.446 43.6961 109.554 43 108z"/>
<path style="fill:#f5949c; stroke:none;" d="M44.3333 108.667C44.2778 108.722 44.2222 109.778 44.6667 109.333C44.7222 109.278 44.7778 108.222 44.3333 108.667z"/>
<path style="fill:#da576a; stroke:none;" d="M62 108L63 109L62 108z"/>
<path style="fill:#ffb8bb; stroke:none;" d="M164.333 108.667C164.278 108.722 164.222 109.778 164.667 109.333C164.722 109.278 164.778 108.222 164.333 108.667z"/>
<path style="fill:#f3919b; stroke:none;" d="M61 109L62 110L61 109z"/>
<path style="fill:#c11b37; stroke:none;" d="M62 109C61.0143 110.479 61 110.203 61 112C62.2892 110.557 62.4009 110.766 62 109z"/>
<path style="fill:#d66474; stroke:none;" d="M134 109L134 112C134.696 110.446 134.696 110.554 134 109z"/>
<path style="fill:#ffd0d2; stroke:none;" d="M44.3333 110.667C44.2778 110.722 44.2222 111.778 44.6667 111.333C44.7223 111.278 44.7777 110.222 44.3333 110.667z"/>
<path style="fill:#c95e6d; stroke:none;" d="M151 110L151 113C151.696 111.446 151.696 111.554 151 110z"/>
<path style="fill:#d65a6f; stroke:none;" d="M60 111L61 112L60 111z"/>
<path style="fill:#ffbbc4; stroke:none;" d="M135 111L135 114C135.696 112.446 135.696 112.554 135 111z"/>
<path style="fill:#ee5b70; stroke:none;" d="M163 111L164 112L163 111z"/>
<path style="fill:#de5268; stroke:none;" d="M43 112L43 115C43.6961 113.446 43.6961 113.554 43 112z"/>
<path style="fill:#ffaebd; stroke:none;" d="M59 112L60 113L59 112z"/>
<path style="fill:#c22a45; stroke:none;" d="M91 112C94.9587 113.661 99.7366 113 104 113C100.041 111.339 95.2634 112 91 112z"/>
<path style="fill:#ffbec4; stroke:none;" d="M150 112L150 115C150.696 113.446 150.696 113.554 150 112z"/>
<path style="fill:#ce1937; stroke:none;" d="M161 112L160 118C161.573 116.051 162.291 114.412 163 112L161 112z"/>
<path style="fill:#dd6779; stroke:none;" d="M59 113L60 114L59 113z"/>
<path style="fill:#c51c3a; stroke:none;" d="M85 114C86.9433 114.622 87.949 114.436 90 114C88.0567 113.378 87.051 113.564 85 114z"/>
<path style="fill:#e55976; stroke:none;" d="M90.6667 113.333C90.2222 113.778 91.2778 113.722 91.3333 113.667C91.7778 113.222 90.7222 113.278 90.6667 113.333z"/>
<path style="fill:#ffbdcc; stroke:none;" d="M92 113C94.6127 114.098 97.1645 113.993 100 114C97.3873 112.902 94.8355 113.007 92 113z"/>
<path style="fill:#fb879a; stroke:none;" d="M100.667 113.333C100.222 113.778 101.278 113.722 101.333 113.667C101.778 113.222 100.722 113.278 100.667 113.333z"/>
<path style="fill:#e55570; stroke:none;" d="M102.667 113.333C102.222 113.778 103.278 113.722 103.333 113.667C103.778 113.222 102.722 113.278 102.667 113.333z"/>
<path style="fill:#ffa7b8; stroke:none;" d="M58 114L59 115L58 114z"/>
<path style="fill:#ffacb6; stroke:none;" d="M88.6667 114.333C88.2222 114.778 89.2778 114.722 89.3333 114.667C89.7778 114.222 88.7222 114.278 88.6667 114.333z"/>
<path style="fill:#ffffff; stroke:none;" d="M71 128C74.226 129.744 76.169 132.684 77.4738 136.165C78.0993 137.834 78.1505 140.631 80.3164 141.098C82.3656 141.54 85.1533 139.716 87 139C89.6065 130.414 99.7208 134.933 106 136C105.418 128.703 100.461 131.426 95 131.312C90.9732 131.229 87.1036 130.014 83 130C84.6848 128.692 85.8462 127.746 87 126C83.026 126.092 79.604 126.223 76 128L77 123C79.4181 123.722 81.4717 123.948 84 124C85.119 114.071 98.7415 115.219 106 118C104.703 119.594 104.465 120.018 104 122C99.2817 121.484 94.7075 122.628 90 123L92 127C94.6451 126.923 96.266 127.003 98 125C103.72 126.461 106.871 129.515 112 132L112 129C113.75 130.283 114.925 131.619 115.333 134C115.623 135.693 115.19 137.904 114 136C111.925 137.17 110.363 137.692 108 138C108.733 142.984 109.899 146.926 109 152L107 148C104.321 154.425 101.704 159.493 96 164C103.984 165.329 113.484 154.582 116.366 148C121.256 136.832 120.266 121.583 108 115.769C104.252 113.992 100.059 113.962 96 114.004C91.3625 114.052 87.0683 114.759 83 117.105C78.2007 119.872 74.1801 123.498 71 128z"/>
<path style="fill:#f69ca3; stroke:none;" d="M104.667 114.333C104.222 114.778 105.278 114.722 105.333 114.667C105.778 114.222 104.722 114.278 104.667 114.333z"/>
<path style="fill:#d25768; stroke:none;" d="M106 114L107 115L106 114z"/>
<path style="fill:#e96d7c; stroke:none;" d="M135.333 114.667C135.278 114.722 135.222 115.778 135.667 115.333C135.722 115.278 135.778 114.222 135.333 114.667z"/>
<path style="fill:#f28a98; stroke:none;" d="M162 114L163 115L162 114z"/>
<path style="fill:#c1304c; stroke:none;" d="M42 115L42 129C43.6668 125.028 43.6668 118.972 42 115z"/>
<path style="fill:#ffa8b7; stroke:none;" d="M43.3333 115.667C43.2778 115.722 43.2222 116.778 43.6667 116.333C43.7222 116.278 43.7778 115.222 43.3333 115.667z"/>
<path style="fill:#e3627b; stroke:none;" d="M58 115L59 116L58 115z"/>
<path style="fill:#c9163d; stroke:none;" d="M77 120L85 116C81.2557 114.784 78.7992 116.754 77 120z"/>
<path style="fill:#ec6078; stroke:none;" d="M85 115L86 116L85 115z"/>
<path style="fill:#e3516c; stroke:none;" d="M108 115L109 116L108 115z"/>
<path style="fill:#bd1539; stroke:none;" d="M109 115C110.223 116.195 110.42 116.316 112 117C110.777 115.805 110.58 115.684 109 115z"/>
<path style="fill:#f05b72; stroke:none;" d="M150.333 115.667C150.278 115.722 150.222 116.778 150.667 116.333C150.722 116.278 150.778 115.222 150.333 115.667z"/>
<path style="fill:#d63756; stroke:none;" d="M32 116L32 120C32.7102 118.241 32.7102 117.759 32 116z"/>
<path style="fill:#fab2ba; stroke:none;" d="M57 116L58 117L57 116z"/>
<path style="fill:#e57383; stroke:none;" d="M83 116L84 117L83 116z"/>
<path style="fill:#fffeff; stroke:none;" d="M84 124C81.558 123.89 79.3772 123.572 77 123C76.4382 124.801 76.1759 126.122 76 128C77.3141 127.232 77.2321 127.314 78 126C81.0833 126.491 83.8958 126.219 87 126C85.6628 127.28 84.6002 128.03 83 129C86.1213 130.325 90.5857 131.341 94 131.571C99.3531 131.931 104.82 128.834 106 136C100.157 134.439 88.4623 130.238 87 139C85.0269 139.467 81.5017 141.351 79.6026 140.099C78.1033 139.11 78.0528 136.805 77.4738 135.285C75.9982 131.411 74.1234 128.685 70 128C66.5653 140.015 61.5007 159.828 79 164C77.8631 160.014 75.5363 156.203 77.01 152C80.6263 141.687 95.9747 133.57 102.543 146.04C104.016 148.837 103.973 151.932 104 155C106.132 152.669 106.177 151.151 106 148C106.957 149.517 107.387 150.339 108 152C111.074 147.494 109.125 142.922 108 138C110.597 137.822 111.887 137.501 114 136C115.287 138.959 116.638 130.701 112 129L112 132C106.935 128.365 104.303 125.847 98 125C95.9434 126.582 94.6125 126.826 92 127C91.5943 124.908 91.7833 124.98 90 124C94.5245 122.468 99.2155 121.675 104 122C104.684 120.42 104.805 120.223 106 119C102.286 115.096 90.1187 114.518 85.7423 118.026C83.977 119.441 84.1117 121.983 84 124z"/>
<path style="fill:#ffa4b8; stroke:none;" d="M109 116L110 117L109 116z"/>
<path style="fill:#ce344e; stroke:none;" d="M135 116L135 123C136.059 120.466 136.059 118.534 135 116z"/>
<path style="fill:#ffccd1; stroke:none;" d="M149 116L149 119C149.696 117.446 149.696 117.554 149 116z"/>
<path style="fill:#ef768a; stroke:none;" d="M161 116L162 117L161 116z"/>
<path style="fill:#cb1e38; stroke:none;" d="M41 117L41 128C42.4309 124.59 42.4309 120.41 41 117z"/>
<path style="fill:#ffdeea; stroke:none;" d="M43 117L43 124C44.0595 121.466 44.0595 119.534 43 117z"/>
<path style="fill:#dc7586; stroke:none;" d="M57 117L58 118L57 117z"/>
<path style="fill:#e45f7e; stroke:none;" d="M81 117L82 118L81 117z"/>
<path style="fill:#ffb5c8; stroke:none;" d="M82 117L83 118L82 117z"/>
<path style="fill:#e6778d; stroke:none;" d="M111 117L112 118L111 117z"/>
<path style="fill:#eea1ad; stroke:none;" d="M80 118L81 119L80 118z"/>
<path style="fill:#d47e85; stroke:none;" d="M112 118L113 119L112 118z"/>
<path style="fill:#c5223e; stroke:none;" d="M159 118L157 124C158.915 121.968 159.744 120.735 159 118z"/>
<path style="fill:#e16a7d; stroke:none;" d="M160 118L161 119L160 118z"/>
<path style="fill:#ff9fb0; stroke:none;" d="M56 119L57 120L56 119z"/>
<path style="fill:#d35b6d; stroke:none;" d="M78 119L79 120L78 119z"/>
<path style="fill:#ffc2c8; stroke:none;" d="M79 119L80 120L79 119z"/>
<path style="fill:#e57f88; stroke:none;" d="M113 119L114 120L113 119z"/>
<path style="fill:#ea8691; stroke:none;" d="M149 119L150 120L149 119z"/>
<path style="fill:#ffadbc; stroke:none;" d="M160 119L161 120L160 119z"/>
<path style="fill:#fa7890; stroke:none;" d="M32 120L32 123C32.6961 121.446 32.6961 121.554 32 120z"/>
<path style="fill:#ca1938; stroke:none;" d="M33 120L34 128C35.1568 125.034 34.62 122.705 33 120z"/>
<path style="fill:#f48696; stroke:none;" d="M77 120L78 121L77 120z"/>
<path style="fill:#ff92a3; stroke:none;" d="M114 120L115 121L114 120z"/>
<path style="fill:#f8909e; stroke:none;" d="M76 121L77 122L76 121z"/>
<path style="fill:#ef7a8b; stroke:none;" d="M115 121L116 122L115 121z"/>
<path style="fill:#ffb6c2; stroke:none;" d="M148 121L149 122L148 121z"/>
<path style="fill:#ffa4b3; stroke:none;" d="M159 121L160 122L159 121z"/>
<path style="fill:#ffb1b9; stroke:none;" d="M55 122L56 123L55 122z"/>
<path style="fill:#d20e2f; stroke:none;" d="M56 122C54.8858 128.001 55 133.917 55 140C56.8161 135.672 57.7749 126.352 56 122z"/>
<path style="fill:#fc97a4; stroke:none;" d="M75 122L76 123L75 122z"/>
<path style="fill:#b91532; stroke:none;" d="M117 122C118.812 128.64 120 134.057 120 141C122.446 135.171 121.405 126.559 117 122z"/>
<path style="fill:#fd758a; stroke:none;" d="M148 122L149 123L148 122z"/>
<path style="fill:#fefefe; stroke:none;" d="M31 123C30.5435 128.785 28.4592 134.365 28.054 140.039C27.4804 148.072 28.8663 155.308 29.6867 163.075C29.916 165.245 28.2081 167.828 28.8627 169.837C29.7767 172.643 34.9226 171.126 37 171.039C43.6311 170.763 49.7238 172.306 50 164L57 164C55.8966 162.543 55.4566 162.103 54 161L56 159C46.657 147.413 34.6161 139.125 33 123L31 123z"/>
<path style="fill:#d14e63; stroke:none;" d="M55.3333 123.667C55.2778 123.722 55.2222 124.778 55.6667 124.333C55.7222 124.278 55.7778 123.222 55.3333 123.667z"/>
<path style="fill:#f4909d; stroke:none;" d="M74 123L75 124L74 123z"/>
<path style="fill:#ff9fb2; stroke:none;" d="M116 123L117 124L116 123z"/>
<path style="fill:#f88290; stroke:none;" d="M135 123L135 126C135.696 124.446 135.696 124.554 135 123z"/>
<path style="fill:#ffb5c2; stroke:none;" d="M158 123L159 124L158 123z"/>
<path style="fill:#d96f7e; stroke:none;" d="M33.3333 124.667C33.2778 124.722 33.2222 125.778 33.6667 125.333C33.7222 125.278 33.7778 124.222 33.3333 124.667z"/>
<path style="fill:#ffc4d8; stroke:none;" d="M43 124L43 128C43.7102 126.241 43.7102 125.759 43 124z"/>
<path style="fill:#ff98a7; stroke:none;" d="M73 124L74 125L73 124z"/>
<path style="fill:#eb667e; stroke:none;" d="M117 124L118 125L117 124z"/>
<path style="fill:#ffb9bc; stroke:none;" d="M147 124L148 125L147 124z"/>
<path style="fill:#e97d8c; stroke:none;" d="M157 124L158 125L157 124z"/>
<path style="fill:#ffadc1; stroke:none;" d="M54 125L54 128C54.6961 126.446 54.6961 126.554 54 125z"/>
<path style="fill:#f58293; stroke:none;" d="M72 125L73 126L72 125z"/>
<path style="fill:#dc7680; stroke:none;" d="M147 125L148 126L147 125z"/>
<path style="fill:#ffb9c2; stroke:none;" d="M33.3333 126.667C33.2778 126.722 33.2222 127.778 33.6667 127.333C33.7222 127.278 33.7778 126.222 33.3333 126.667z"/>
<path style="fill:#d6596c; stroke:none;" d="M71 126L72 127L71 126z"/>
<path style="fill:#da556a; stroke:none;" d="M118 126L119 127L118 126z"/>
<path style="fill:#ffd1d7; stroke:none;" d="M135 126L135 129C135.696 127.446 135.696 127.554 135 126z"/>
<path style="fill:#f79ea2; stroke:none;" d="M156 126L157 127L156 126z"/>
<path style="fill:#ff8e9d; stroke:none;" d="M118 127L119 128L118 127z"/>
<path style="fill:#f68797; stroke:none;" d="M146 127L147 128L146 127z"/>
<path style="fill:#f07b90; stroke:none;" d="M34.3333 128.667C34.2778 128.722 34.2222 129.778 34.6667 129.333C34.7222 129.278 34.7778 128.222 34.3333 128.667z"/>
<path style="fill:#c61d3d; stroke:none;" d="M35 128L36 134C36.8888 131.492 36.495 130.185 35 128z"/>
<path style="fill:#fe849a; stroke:none;" d="M43 128L43 131C43.6961 129.446 43.6961 129.554 43 128z"/>
<path style="fill:#e5576e; stroke:none;" d="M54 128L54 138C55.3457 134.793 55.3457 131.207 54 128z"/>
<path style="fill:#ec808b; stroke:none;" d="M134 128L134 131C134.696 129.446 134.696 129.554 134 128z"/>
<path style="fill:#ec5d72; stroke:none;" d="M69 129L70 130L69 129z"/>
<path style="fill:#ef778a; stroke:none;" d="M119.333 129.667C119.278 129.722 119.222 130.778 119.667 130.333C119.722 130.278 119.778 129.222 119.333 129.667z"/>
<path style="fill:#e78690; stroke:none;" d="M145 129L146 130L145 129z"/>
<path style="fill:#f78a9b; stroke:none;" d="M154 129L155 130L154 129z"/>
<path style="fill:#ffe0e4; stroke:none;" d="M53 130L53 137C54.0595 134.466 54.0595 132.534 53 130z"/>
<path style="fill:#ffafba; stroke:none;" d="M69 130L70 131L69 130z"/>
<path style="fill:#de576f; stroke:none;" d="M153 130L154 131L153 130z"/>
<path style="fill:#b71532; stroke:none;" d="M43 131L43 136C43.8299 133.97 43.8299 133.03 43 131z"/>
<path style="fill:#e26b73; stroke:none;" d="M68 131L69 132L68 131z"/>
<path style="fill:#ffb2bc; stroke:none;" d="M119.333 131.667C119.278 131.722 119.222 132.778 119.667 132.333C119.722 132.278 119.778 131.222 119.333 131.667z"/>
<path style="fill:#f57a8a; stroke:none;" d="M144 131L145 132L144 131z"/>
<path style="fill:#b51b35; stroke:none;" d="M151 131L151 133C152.635 132.455 152.455 132.635 153 131L151 131z"/>
<path style="fill:#ffb7c3; stroke:none;" d="M153 131L154 132L153 131z"/>
<path style="fill:#ee989f; stroke:none;" d="M35 132L36 133L35 132z"/>
<path style="fill:#ffc8c6; stroke:none;" d="M68 132L69 133L68 132z"/>
<path style="fill:#be0f2b; stroke:none;" d="M132 132L131 137C132.318 135.074 132.651 134.234 132 132z"/>
<path style="fill:#ff9caf; stroke:none;" d="M133.333 132.667C133.278 132.722 133.222 133.778 133.667 133.333C133.722 133.278 133.778 132.222 133.333 132.667z"/>
<path style="fill:#fda5b0; stroke:none;" d="M152 132L153 133L152 132z"/>
<path style="fill:#f99da9; stroke:none;" d="M44 133L44 136C44.6961 134.446 44.6961 134.554 44 133z"/>
<path style="fill:#c91737; stroke:none;" d="M66 133L65 138C66.3182 136.074 66.6514 135.234 66 133z"/>
<path style="fill:#e45568; stroke:none;" d="M67 133L68 134L67 133z"/>
<path style="fill:#ffd3d7; stroke:none;" d="M119 133L119 138C119.83 135.97 119.83 135.03 119 133z"/>
<path style="fill:#e46f7f; stroke:none;" d="M143 133L144 134L143 133z"/>
<path style="fill:#eb7184; stroke:none;" d="M151 133L152 134L151 133z"/>
<path style="fill:#e05e74; stroke:none;" d="M36 134L37 135L36 134z"/>
<path style="fill:#ff9aa8; stroke:none;" d="M67 134L68 135L67 134z"/>
<path style="fill:#ff9fac; stroke:none;" d="M142 134L143 135L142 134z"/>
<path style="fill:#db586f; stroke:none;" d="M150 134L151 135L150 134z"/>
<path style="fill:#ffaeba; stroke:none;" d="M36 135L37 136L36 135z"/>
<path style="fill:#d57b86; stroke:none;" d="M132 135L133 136L132 135z"/>
<path style="fill:#dc5266; stroke:none;" d="M142 135L143 136L142 135z"/>
<path style="fill:#d56572; stroke:none;" d="M37 136L38 137L37 136z"/>
<path style="fill:#ffa6b7; stroke:none;" d="M45.3333 136.667C45.2778 136.722 45.2222 137.778 45.6667 137.333C45.7222 137.278 45.7778 136.222 45.3333 136.667z"/>
<path style="fill:#f69ba7; stroke:none;" d="M66.3333 136.667C66.2778 136.722 66.2222 137.778 66.6667 137.333C66.7222 137.278 66.7778 136.222 66.3333 136.667z"/>
<path style="fill:#e5848c; stroke:none;" d="M141 136L142 137L141 136z"/>
<path style="fill:#c91331; stroke:none;" d="M142 136L139 141C141.223 139.619 142.245 138.644 142 136z"/>
<path style="fill:#ffb6c5; stroke:none;" d="M149 136L150 137L149 136z"/>
<path style="fill:#ffafb6; stroke:none;" d="M37 137L38 138L37 137z"/>
<path style="fill:#db4f68; stroke:none;" d="M131 137L132 138L131 137z"/>
<path style="fill:#ffadb3; stroke:none;" d="M140 137L141 138L140 137z"/>
<path style="fill:#c11736; stroke:none;" d="M145 137L144 141C145.627 139.283 145.954 139.101 145 137z"/>
<path style="fill:#ffa2b0; stroke:none;" d="M148 137L149 138L148 137z"/>
<path style="fill:#da5a6f; stroke:none;" d="M38 138L39 139L38 138z"/>
<path style="fill:#ba2942; stroke:none;" d="M39.3333 138.667C39.2778 138.722 39.2222 139.778 39.6667 139.333C39.7222 139.278 39.7778 138.222 39.3333 138.667z"/>
<path style="fill:#ef6a80; stroke:none;" d="M45 138L46 139L45 138z"/>
<path style="fill:#ff9fab; stroke:none;" d="M54.3333 138.667C54.2778 138.722 54.2222 139.778 54.6667 139.333C54.7222 139.278 54.7778 138.222 54.3333 138.667z"/>
<path style="fill:#d4455d; stroke:none;" d="M65 138L65 141C65.6961 139.446 65.6961 139.554 65 138z"/>
<path style="fill:#eb8391; stroke:none;" d="M119.333 138.667C119.278 138.722 119.222 139.778 119.667 139.333C119.722 139.278 119.778 138.222 119.333 138.667z"/>
<path style="fill:#ffa5b8; stroke:none;" d="M131 138L132 139L131 138z"/>
<path style="fill:#f08391; stroke:none;" d="M147 138L148 139L147 138z"/>
<path style="fill:#ffb8c4; stroke:none;" d="M38 139L39 140L38 139z"/>
<path style="fill:#c71c35; stroke:none;" d="M64 139L64 148C65.2561 145.006 65.2561 141.994 64 139z"/>
<path style="fill:#ffe6ee; stroke:none;" d="M90 139C91.7691 139.779 93.0359 139.912 95 140C93.231 139.221 91.9641 139.088 90 139z"/>
<path style="fill:#dd596e; stroke:none;" d="M130 139L131 140L130 139z"/>
<path style="fill:#e87887; stroke:none;" d="M139 139L140 140L139 139z"/>
<path style="fill:#e87d8b; stroke:none;" d="M146 139L147 140L146 139z"/>
<path style="fill:#e97e8d; stroke:none;" d="M39 140L40 141L39 140z"/>
<path style="fill:#fa9aa4; stroke:none;" d="M46 140L47 141L46 140z"/>
<path style="fill:#ffd3d8; stroke:none;" d="M54.3333 140.667C54.2778 140.722 54.2222 141.778 54.6667 141.333C54.7222 141.278 54.7778 140.222 54.3333 140.667z"/>
<path style="fill:#c14353; stroke:none;" d="M55 140L55 143C55.6961 141.446 55.6961 141.554 55 140z"/>
<path style="fill:#ffbbc6; stroke:none;" d="M87 140L88 141L87 140z"/>
<path style="fill:#e8536f; stroke:none;" d="M88.6667 140.333C88.2223 140.778 89.2777 140.722 89.3333 140.667C89.7778 140.222 88.7222 140.278 88.6667 140.333z"/>
<path style="fill:#bb0c31; stroke:none;" d="M90 140C91.5061 140.683 92.3148 140.826 94 141C92.494 140.317 91.6852 140.174 90 140z"/>
<path style="fill:#cf3c57; stroke:none;" d="M94.6667 140.333C94.2222 140.778 95.2778 140.722 95.3333 140.667C95.7778 140.222 94.7222 140.278 94.6667 140.333z"/>
<path style="fill:#ffb6c4; stroke:none;" d="M96.6667 140.333C96.2222 140.778 97.2778 140.722 97.3333 140.667C97.7778 140.222 96.7222 140.278 96.6667 140.333z"/>
<path style="fill:#d44d65; stroke:none;" d="M119.333 140.667C119.278 140.722 119.222 141.778 119.667 141.333C119.722 141.278 119.778 140.222 119.333 140.667z"/>
<path style="fill:#ff889d; stroke:none;" d="M138 140L139 141L138 140z"/>
<path style="fill:#f3778c; stroke:none;" d="M145 140L146 141L145 140z"/>
<path style="fill:#ff95a7; stroke:none;" d="M65 141L65 147C65.9511 144.715 65.9511 143.285 65 141z"/>
<path style="fill:#fcb0b4; stroke:none;" d="M85 141L86 142L85 141z"/>
<path style="fill:#d36470; stroke:none;" d="M86 141L87 142L86 141z"/>
<path style="fill:#e71737; stroke:none;" d="M87.1042 141.742C80.4721 144.501 75.3003 157.236 81.0324 162.968C84.0062 165.941 91.3265 165.686 94.9954 164.258C107.617 159.344 102.703 135.252 87.1042 141.742z"/>
<path style="fill:#e87988; stroke:none;" d="M98 141L99 142L98 141z"/>
<path style="fill:#ffacbf; stroke:none;" d="M118 141L118 144C118.696 142.446 118.696 142.554 118 141z"/>
<path style="fill:#ea6e85; stroke:none;" d="M129 141L130 142L129 141z"/>
<path style="fill:#ffadb9; stroke:none;" d="M137 141L138 142L137 141z"/>
<path style="fill:#f47289; stroke:none;" d="M144 141L145 142L144 141z"/>
<path style="fill:#ff94a1; stroke:none;" d="M40 142L41 143L40 142z"/>
<path style="fill:#ff93aa; stroke:none;" d="M47 142L48 143L47 142z"/>
<path style="fill:#ffc2d0; stroke:none;" d="M83 142L84 143L83 142z"/>
<path style="fill:#e66c80; stroke:none;" d="M84 142L85 143L84 142z"/>
<path style="fill:#ffb1ba; stroke:none;" d="M100 142L101 143L100 142z"/>
<path style="fill:#ffb7cb; stroke:none;" d="M136 142L137 143L136 142z"/>
<path style="fill:#ca5d64; stroke:none;" d="M143 142L144 143L143 142z"/>
<path style="fill:#d46870; stroke:none;" d="M41 143L42 144L41 143z"/>
<path style="fill:#f28d97; stroke:none;" d="M55 143L56 144L55 143z"/>
<path style="fill:#ffb2bd; stroke:none;" d="M82 143L83 144L82 143z"/>
<path style="fill:#cc4f63; stroke:none;" d="M83 143L84 144L83 143z"/>
<path style="fill:#c4273c; stroke:none;" d="M100 143C100.547 144.875 101.11 146.255 102 148C102.375 145.581 101.693 144.782 100 143z"/>
<path style="fill:#ffbac3; stroke:none;" d="M101 143L102 144L101 143z"/>
<path style="fill:#f793a5; stroke:none;" d="M128 143L129 144L128 143z"/>
<path style="fill:#d96870; stroke:none;" d="M142 143L143 144L142 143z"/>
<path style="fill:#c01730; stroke:none;" d="M47 144C47.6836 145.58 47.8048 145.777 49 147C48.3164 145.42 48.1952 145.223 47 144z"/>
<path style="fill:#fa9eb0; stroke:none;" d="M48 144L49 145L48 144z"/>
<path style="fill:#ff8e9a; stroke:none;" d="M81 144L82 145L81 144z"/>
<path style="fill:#bf142e; stroke:none;" d="M80 148C82.001 146.785 82.7853 146.001 84 144C81.7511 145.154 81.1535 145.751 80 148z"/>
<path style="fill:#ffbdc8; stroke:none;" d="M117.333 144.667C117.278 144.722 117.222 145.778 117.667 145.333C117.722 145.278 117.778 144.222 117.333 144.667z"/>
<path style="fill:#df5c6c; stroke:none;" d="M127 144L128 145L127 144z"/>
<path style="fill:#c95d6b; stroke:none;" d="M135 144L136 145L135 144z"/>
<path style="fill:#f27a8e; stroke:none;" d="M141 144L142 145L141 144z"/>
<path style="fill:#df4d69; stroke:none;" d="M56 145L57 146L56 145z"/>
<path style="fill:#ff97a0; stroke:none;" d="M80 145L81 146L80 145z"/>
<path style="fill:#e5848e; stroke:none;" d="M102 145L103 146L102 145z"/>
<path style="fill:#ffc4cb; stroke:none;" d="M127 145L128 146L127 145z"/>
<path style="fill:#ec7685; stroke:none;" d="M134 145L135 146L134 145z"/>
<path style="fill:#f38494; stroke:none;" d="M140 145L141 146L140 145z"/>
<path style="fill:#f998a3; stroke:none;" d="M43 146L44 147L43 146z"/>
<path style="fill:#f37b8b; stroke:none;" d="M49 146L50 147L49 146z"/>
<path style="fill:#ff93a5; stroke:none;" d="M56 146L57 147L56 146z"/>
<path style="fill:#eb7d8c; stroke:none;" d="M117 146L118 147L117 146z"/>
<path style="fill:#f49fa6; stroke:none;" d="M126 146L127 147L126 146z"/>
<path style="fill:#eb7582; stroke:none;" d="M133 146L134 147L133 146z"/>
<path style="fill:#f0949c; stroke:none;" d="M139 146L140 147L139 146z"/>
<path style="fill:#e06b7a; stroke:none;" d="M44 147L45 148L44 147z"/>
<path style="fill:#ffb1bc; stroke:none;" d="M50 147L51 148L50 147z"/>
<path style="fill:#e95e72; stroke:none;" d="M65 147L65 150C65.6961 148.446 65.6961 148.554 65 147z"/>
<path style="fill:#cc616a; stroke:none;" d="M79 147L80 148L79 147z"/>
<path style="fill:#ff91ab; stroke:none;" d="M103 147L104 148L103 147z"/>
<path style="fill:#f58397; stroke:none;" d="M125 147L126 148L125 147z"/>
<path style="fill:#e26f7a; stroke:none;" d="M132 147L133 148L132 147z"/>
<path style="fill:#ffabb3; stroke:none;" d="M138 147L139 148L138 147z"/>
<path style="fill:#cd6b76; stroke:none;" d="M45 148L46 149L45 148z"/>
<path style="fill:#ef8c98; stroke:none;" d="M57 148L58 149L57 148z"/>
<path style="fill:#ff98a5; stroke:none;" d="M78 148L79 149L78 148z"/>
<path style="fill:#cb1432; stroke:none;" d="M79 148C77.2941 152.557 77.1288 156.236 78 161C79.4929 157.442 79.8978 151.738 79 148z"/>
<path style="fill:#ce0f34; stroke:none;" d="M102 148L101 158C103.123 154.892 103.459 151.484 102 148z"/>
<path style="fill:#db405f; stroke:none;" d="M103 148L103 153C103.83 150.97 103.83 150.03 103 148z"/>
<path style="fill:#ff748e; stroke:none;" d="M116 148L117 149L116 148z"/>
<path style="fill:#ce727f; stroke:none;" d="M124 148L125 149L124 148z"/>
<path style="fill:#e76c7c; stroke:none;" d="M131 148L132 149L131 148z"/>
<path style="fill:#cd1937; stroke:none;" d="M132 148C129.83 149.933 127.815 151.742 126 154C129.019 153.465 131.327 152.504 134 151C133.309 149.612 133.015 149.139 132 148z"/>
<path style="fill:#d35766; stroke:none;" d="M136 148L137 149L136 148z"/>
<path style="fill:#d95670; stroke:none;" d="M46 149L47 150L46 149z"/>
<path style="fill:#ea617f; stroke:none;" d="M51 149L52 150L51 149z"/>
<path style="fill:#ffbcc2; stroke:none;" d="M66 149L66 152C66.6961 150.446 66.6961 150.554 66 149z"/>
<path style="fill:#d96775; stroke:none;" d="M130 149L131 150L130 149z"/>
<path style="fill:#de6474; stroke:none;" d="M135 149L136 150L135 149z"/>
<path style="fill:#df6177; stroke:none;" d="M47 150L48 151L47 150z"/>
<path style="fill:#fe9fae; stroke:none;" d="M52 150L53 151L52 150z"/>
<path style="fill:#fe8799; stroke:none;" d="M58 150L59 151L58 150z"/>
<path style="fill:#f69ea9; stroke:none;" d="M77 150L78 151L77 150z"/>
<path style="fill:#e87784; stroke:none;" d="M115 150L116 151L115 150z"/>
<path style="fill:#ffbbc4; stroke:none;" d="M128 150L129 151L128 150z"/>
<path style="fill:#e15466; stroke:none;" d="M129 150L130 151L129 150z"/>
<path style="fill:#fe9eab; stroke:none;" d="M134 150L135 151L134 150z"/>
<path style="fill:#ffb8c0; stroke:none;" d="M53 151L54 152L53 151z"/>
<path style="fill:#c04254; stroke:none;" d="M77.3333 151.667C77.2778 151.722 77.2222 152.778 77.6667 152.333C77.7222 152.278 77.7778 151.222 77.3333 151.667z"/>
<path style="fill:#ffb1bd; stroke:none;" d="M114 151L115 152L114 151z"/>
<path style="fill:#ffb5ca; stroke:none;" d="M133 151L134 152L133 151z"/>
<path style="fill:#d4687a; stroke:none;" d="M49 152L50 153L49 152z"/>
<path style="fill:#ffb9be; stroke:none;" d="M54 152L55 153L54 152z"/>
<path style="fill:#e25f72; stroke:none;" d="M66 152L67 153L66 152z"/>
<path style="fill:#ff99b1; stroke:none;" d="M76 152L76 158C76.9511 155.715 76.9511 154.285 76 152z"/>
<path style="fill:#ffbecb; stroke:none;" d="M113 152L114 153L113 152z"/>
<path style="fill:#ff8fa0; stroke:none;" d="M126 152L127 153L126 152z"/>
<path style="fill:#fc8698; stroke:none;" d="M131 152L132 153L131 152z"/>
<path style="fill:#fe6f8c; stroke:none;" d="M50 153L51 154L50 153z"/>
<path style="fill:#c81a35; stroke:none;" d="M52 154C53.543 155.267 54.0478 155.489 56 156C56 154.203 55.9857 154.479 55 153C53.2032 153 53.4785 153.014 52 154z"/>
<path style="fill:#ffb8bd; stroke:none;" d="M55 153L56 154L55 153z"/>
<path style="fill:#fc7e95; stroke:none;" d="M60 153L61 154L60 153z"/>
<path style="fill:#ffb9ca; stroke:none;" d="M67 153L68 154L67 153z"/>
<path style="fill:#ff92a6; stroke:none;" d="M103 153L103 156C103.696 154.446 103.696 154.554 103 153z"/>
<path style="fill:#e87086; stroke:none;" d="M113 153L114 154L113 153z"/>
<path style="fill:#ee7b8c; stroke:none;" d="M125 153L126 154L125 153z"/>
<path style="fill:#ee5e74; stroke:none;" d="M129 153L130 154L129 153z"/>
<path style="fill:#ffa8b6; stroke:none;" d="M130 153L131 154L130 153z"/>
<path style="fill:#e88694; stroke:none;" d="M51 154L52 155L51 154z"/>
<path style="fill:#d56279; stroke:none;" d="M61 154L62 155L61 154z"/>
<path style="fill:#fb6d84; stroke:none;" d="M67 154L68 155L67 154z"/>
<path style="fill:#f27589; stroke:none;" d="M112 154L113 155L112 154z"/>
<path style="fill:#ffbdcb; stroke:none;" d="M123 154L124 155L123 154z"/>
<path style="fill:#df5570; stroke:none;" d="M124 154L125 155L124 154z"/>
<path style="fill:#b02334; stroke:none;" d="M120 157C122.965 157.697 125.242 156.22 128 155C124.91 154.15 122.744 155.465 120 157z"/>
<path style="fill:#eb909a; stroke:none;" d="M128 154L129 155L128 154z"/>
<path style="fill:#ff9dab; stroke:none;" d="M52 155L53 156L52 155z"/>
<path style="fill:#b02b39; stroke:none;" d="M56 155L55 156C57.6442 158.717 60.3058 160.152 64 161C61.5598 158.643 58.8861 156.785 56 155z"/>
<path style="fill:#feadb5; stroke:none;" d="M57 155L58 156L57 155z"/>
<path style="fill:#bd1c33; stroke:none;" d="M62 155C63.4498 156.608 64.0514 157.064 66 158C64.5502 156.392 63.9486 155.936 62 155z"/>
<path style="fill:#ffa3b4; stroke:none;" d="M111 155L112 156L111 155z"/>
<path style="fill:#e56381; stroke:none;" d="M117 155L118 156L117 155z"/>
<path style="fill:#fea0a8; stroke:none;" d="M122 155L123 156L122 155z"/>
<path style="fill:#dc5e75; stroke:none;" d="M126 155L127 156L126 155z"/>
<path style="fill:#ffacbc; stroke:none;" d="M127 155L128 156L127 155z"/>
<path style="fill:#ea7b8a; stroke:none;" d="M54 156L55 157L54 156z"/>
<path style="fill:#ff8ea9; stroke:none;" d="M58 156L59 157L58 156z"/>
<path style="fill:#cf6570; stroke:none;" d="M68 156L69 157L68 156z"/>
<path style="fill:#e77585; stroke:none;" d="M102 156L103 157L102 156z"/>
<path style="fill:#ff91a5; stroke:none;" d="M110 156L111 157L110 156z"/>
<path style="fill:#cc102e; stroke:none;" d="M107 161C110.338 160.103 111.922 159.339 113 156C110.237 157.299 108.836 158.553 107 161z"/>
<path style="fill:#f7a3b4; stroke:none;" d="M116 156L117 157L116 156z"/>
<path style="fill:#ffa9b8; stroke:none;" d="M120 156L121 157L120 156z"/>
<path style="fill:#ca5e6c; stroke:none;" d="M124 156L125 157L124 156z"/>
<path style="fill:#ffb4bd; stroke:none;" d="M125 156L126 157L125 156z"/>
<path style="fill:#ffa4b2; stroke:none;" d="M55 157L56 158L55 157z"/>
<path style="fill:#ec788c; stroke:none;" d="M59 157L60 158L59 157z"/>
<path style="fill:#fc9ea9; stroke:none;" d="M69 157L70 158L69 157z"/>
<path style="fill:#f69ea6; stroke:none;" d="M109 157L110 158L109 157z"/>
<path style="fill:#ffacc1; stroke:none;" d="M115 157L116 158L115 157z"/>
<path style="fill:#e3899a; stroke:none;" d="M119 157L120 158L119 157z"/>
<path style="fill:#ff8c99; stroke:none;" d="M123 157L124 158L123 157z"/>
<path style="fill:#d1727b; stroke:none;" d="M57 158L58 159L57 158z"/>
<path style="fill:#db5661; stroke:none;" d="M65 158L66 159L65 158z"/>
<path style="fill:#c6193d; stroke:none;" d="M66 158C68.0863 160.441 70.0575 161.704 73 163C71.2755 159.966 69.3216 158.995 66 158z"/>
<path style="fill:#ffb1c0; stroke:none;" d="M70 158L71 159L70 158z"/>
<path style="fill:#cc656f; stroke:none;" d="M77.3333 158.667C77.2778 158.722 77.2222 159.778 77.6667 159.333C77.7222 159.278 77.7778 158.222 77.3333 158.667z"/>
<path style="fill:#ec7687; stroke:none;" d="M101 158L102 159L101 158z"/>
<path style="fill:#ff8ca0; stroke:none;" d="M108 158L109 159L108 158z"/>
<path style="fill:#ef7b8d; stroke:none;" d="M113 158L114 159L113 158z"/>
<path style="fill:#ff98ac; stroke:none;" d="M117 158L118 159L117 158z"/>
<path style="fill:#bf4056; stroke:none;" d="M116 161L121 159C118.469 158.29 117.484 158.869 116 161z"/>
<path style="fill:#e29098; stroke:none;" d="M121 158L122 159L121 158z"/>
<path style="fill:#ffb4ba; stroke:none;" d="M58 159L59 160L58 159z"/>
<path style="fill:#d55e69; stroke:none;" d="M59 159L60 160L59 159z"/>
<path style="fill:#e496a6; stroke:none;" d="M62 159L63 160L62 159z"/>
<path style="fill:#f86575; stroke:none;" d="M66 159L67 160L66 159z"/>
<path style="fill:#d95a75; stroke:none;" d="M70 159L71 160L70 159z"/>
<path style="fill:#ffc2c9; stroke:none;" d="M101 159L102 160L101 159z"/>
<path style="fill:#e38598; stroke:none;" d="M107 159L108 160L107 159z"/>
<path style="fill:#ffcbd7; stroke:none;" d="M109 161C111.509 161.566 112.22 160.848 114 159C112.125 159.547 110.745 160.11 109 161z"/>
<path style="fill:#fcc1c0; stroke:none;" d="M115 159L116 160L115 159z"/>
<path style="fill:#f78a9d; stroke:none;" d="M119 159L120 160L119 159z"/>
<path style="fill:#ffb8c5; stroke:none;" d="M60 160L61 161L60 160z"/>
<path style="fill:#ffa4b5; stroke:none;" d="M64 160L65 161L64 160z"/>
<path style="fill:#ffa4ad; stroke:none;" d="M67 160L68 161L67 160z"/>
<path style="fill:#ffacbd; stroke:none;" d="M105 160L106 161L105 160z"/>
<path style="fill:#d95166; stroke:none;" d="M106 160L107 161L106 160z"/>
<path style="fill:#ca4b61; stroke:none;" d="M109 160L110 161L109 160z"/>
<path style="fill:#ff98b1; stroke:none;" d="M113 160L114 161L113 160z"/>
<path style="fill:#d07687; stroke:none;" d="M114.333 160.667C114.278 160.722 114.222 161.778 114.667 161.333C114.722 161.278 114.778 160.222 114.333 160.667z"/>
<path style="fill:#84303d; stroke:none;" d="M115 160L116 161L115 160z"/>
<path style="fill:#ffb7c5; stroke:none;" d="M117 160L118 161L117 160z"/>
<path style="fill:#ff9fb6; stroke:none;" d="M62 161L63 162L62 161z"/>
<path style="fill:#bb6b75; stroke:none;" d="M63 161C64.7505 162.255 65.8573 162.614 68 163C66.2495 161.745 65.1426 161.386 63 161z"/>
<path style="fill:#fc9db0; stroke:none;" d="M68 161C69.6572 164.163 71.5112 164.755 75 165C72.8289 163.198 70.6068 162.093 68 161z"/>
<path style="fill:#ff5b7c; stroke:none;" d="M69 161L70 162L69 161z"/>
<path style="fill:#e96984; stroke:none;" d="M78 161L79 162L78 161z"/>
<path style="fill:#f28597; stroke:none;" d="M99 161L100 162L99 161z"/>
<path style="fill:#e78694; stroke:none;" d="M104 161L105 162L104 161z"/>
<path style="fill:#d15977; stroke:none;" d="M105 161C103.964 162.186 103.661 162.604 103 164C104.849 163.033 105.722 162.86 105 161z"/>
<path style="fill:#ac0f28; stroke:none;" d="M106 161L107 162L106 161z"/>
<path style="fill:#de3f5c; stroke:none;" d="M107 161L108 162L107 161z"/>
<path style="fill:#eda3b4; stroke:none;" d="M108 161L102 164C104.604 165.219 108.815 164.561 108 161z"/>
<path style="fill:#b74c61; stroke:none;" d="M112.667 161.333C112.222 161.778 113.278 161.722 113.333 161.667C113.778 161.222 112.722 161.278 112.667 161.333z"/>
<path style="fill:#fbbcc4; stroke:none;" d="M64 162L65 163L64 162z"/>
<path style="fill:#e8677c; stroke:none;" d="M71 162L72 163L71 162z"/>
<path style="fill:#ce3f5c; stroke:none;" d="M73 162L73 164L75 164C74.4549 162.365 74.6352 162.545 73 162z"/>
<path style="fill:#ff92a3; stroke:none;" d="M74 162L75 163L74 162z"/>
<path style="fill:#cc122c; stroke:none;" d="M79 162C80.2228 163.195 80.42 163.316 82 164C80.7772 162.805 80.58 162.684 79 162z"/>
<path style="fill:#faa0a7; stroke:none;" d="M98 162L99 163L98 162z"/>
<path style="fill:#ffa7bd; stroke:none;" d="M102 162L103 163L102 162z"/>
<path style="fill:#c36e80; stroke:none;" d="M109 162C110.248 162.685 110.548 162.749 112 163C110.752 162.315 110.452 162.251 109 162z"/>
<path style="fill:#eca8b2; stroke:none;" d="M67 163L68 164L67 163z"/>
<path style="fill:#bc737a; stroke:none;" d="M68.6667 163.333C68.2222 163.778 69.2778 163.722 69.3333 163.667C69.7778 163.222 68.7222 163.278 68.6667 163.333z"/>
<path style="fill:#c7667a; stroke:none;" d="M75.3333 163.667C75.2778 163.722 75.2222 164.778 75.6667 164.333C75.7222 164.278 75.7778 163.222 75.3333 163.667z"/>
<path style="fill:#ffdbe9; stroke:none;" d="M78 165L81 165L80 163C78.3648 163.545 78.5451 163.365 78 165z"/>
<path style="fill:#f7b7c2; stroke:none;" d="M100 163L101 164L100 163z"/>
<path style="fill:#cd758e; stroke:none;" d="M101.333 163.667C101.278 163.722 101.222 164.778 101.667 164.333C101.722 164.278 101.778 163.222 101.333 163.667z"/>
<path style="fill:#9f304e; stroke:none;" d="M102 163L103 164L102 163z"/>
<path style="fill:#d67d8a; stroke:none;" d="M107.667 163.333C107.222 163.778 108.278 163.722 108.333 163.667C108.778 163.222 107.722 163.278 107.667 163.333z"/>
<path style="fill:#ffcad8; stroke:none;" d="M109.667 163.333C109.222 163.778 110.278 163.722 110.333 163.667C110.778 163.222 109.722 163.278 109.667 163.333z"/>
<path style="fill:#9c3a4d; stroke:none;" d="M76 164L77 165L76 164z"/>
<path style="fill:#e18ea2; stroke:none;" d="M77 164C77.9802 165.783 77.9076 165.594 80 166C78.8607 164.985 78.3884 164.691 77 164z"/>
<path style="fill:#dc5e68; stroke:none;" d="M81 164L82 165L81 164z"/>
<path style="fill:#fdaaae; stroke:none;" d="M93 165C94.5061 165.683 95.3148 165.826 97 166C95.2762 164.944 95.0793 164.964 93 165z"/>
<path style="fill:#d48092; stroke:none;" d="M98 164L97 166L99 166C99 164.147 99.2997 164.65 98 164z"/>
<path style="fill:#a0425c; stroke:none;" d="M99.6667 164.333C99.2222 164.778 100.278 164.722 100.333 164.667C100.778 164.222 99.7222 164.278 99.6667 164.333z"/>
<path style="fill:#ffd6dc; stroke:none;" d="M72 165C73.2484 165.685 73.5484 165.749 75 166C73.7516 165.315 73.4516 165.251 72 165z"/>
<path style="fill:#ffb0c5; stroke:none;" d="M75.6667 165.333C75.2222 165.778 76.2778 165.722 76.3333 165.667C76.7778 165.222 75.7222 165.278 75.6667 165.333z"/>
<path style="fill:#f0ccce; stroke:none;" d="M79 166C81.0521 166.874 82.7472 166.953 85 167C82.7309 165.493 81.6738 165.458 79 166z"/>
<path style="fill:#dc4c62; stroke:none;" d="M83 165L84 166L83 165z"/>
<path style="fill:#cb1737; stroke:none;" d="M84 165C86.8897 166.213 89.8741 165.998 93 166C90.1103 164.787 87.1259 165.002 84 165z"/>
<path style="fill:#ffb8d0; stroke:none;" d="M99.6667 165.333C99.2222 165.778 100.278 165.722 100.333 165.667C100.778 165.222 99.7222 165.278 99.6667 165.333z"/>
<path style="fill:#d97184; stroke:none;" d="M85 166C86.769 166.779 88.0359 166.912 90 167C88.231 166.221 86.964 166.088 85 166z"/>
<path style="fill:#f7adb6; stroke:none;" d="M90.6667 166.333C90.2222 166.778 91.2778 166.722 91.3333 166.667C91.7778 166.222 90.7222 166.278 90.6667 166.333z"/>
<path style="fill:#ffd3d6; stroke:none;" d="M92 166C93.5061 166.683 94.3148 166.826 96 167C94.494 166.317 93.6852 166.174 92 166z"/>
</svg>
